<?xml version="1.0" encoding="UTF-8"?>
<svg xmlns="http://www.w3.org/2000/svg" width="360" height="135" viewBox="0 0 360 135" version="1.1" role="img" aria-labelledby="title desc">
  <title id="title">Nature Forward logo - vector trace</title>
  <desc id="desc">Grouped pure vector trace. No raster image is embedded.</desc>
  <style>
    .ink { fill: #111111; fill-rule: evenodd; }
  </style>
  <path class="ink" d="M261,110 L260,111 L259,111 L256,114 L256,115 L255,116 L255,122 L256,123 L256,124 L259,127 L261,127 L262,128 L267,128 L268,127 L269,127 L273,123 L273,115 L272,114 L272,113 L271,112 L270,112 L269,111 L268,111 L267,110 Z M262,112 L266,112 L270,116 L270,122 L266,126 L263,126 L259,122 L259,121 L258,120 L258,118 L259,117 L259,115 Z"/>
<path class="ink" d="M239,110 L239,112 L240,113 L240,125 L239,126 L239,128 L243,128 L244,127 L244,126 L243,125 L243,121 L244,120 L247,123 L247,124 L249,126 L249,127 L250,127 L251,128 L253,128 L254,127 L254,126 L253,126 L251,124 L251,123 L249,121 L249,120 L252,117 L252,113 L250,111 L249,111 L248,110 Z M243,113 L244,112 L246,112 L249,115 L248,116 L248,117 L247,118 L244,118 L243,117 Z"/>
<path class="ink" d="M222,110 L221,111 L221,114 L223,114 L223,113 L224,112 L226,112 L227,113 L227,125 L226,126 L226,127 L227,128 L228,128 L229,127 L231,127 L231,126 L230,125 L230,113 L231,112 L233,112 L235,114 L236,114 L236,110 Z"/>
<path class="ink" d="M211,110 L210,111 L209,111 L208,112 L208,117 L210,119 L211,119 L212,120 L213,120 L214,121 L215,121 L217,123 L217,124 L216,125 L215,125 L214,126 L212,126 L209,123 L208,123 L208,127 L210,127 L211,128 L216,128 L217,127 L218,127 L219,126 L219,125 L220,124 L220,121 L217,118 L216,118 L215,117 L214,117 L213,116 L212,116 L211,115 L211,113 L212,112 L215,112 L217,114 L219,114 L219,113 L218,112 L218,111 L217,111 L216,110 Z"/>
<path class="ink" d="M200,110 L200,125 L199,126 L199,127 L200,128 L204,128 L204,126 L203,125 L203,113 L204,112 L204,110 Z"/>
<path class="ink" d="M183,110 L183,112 L184,113 L184,125 L183,126 L183,128 L184,128 L185,127 L186,127 L187,128 L190,128 L191,127 L194,127 L196,125 L196,120 L194,118 L195,117 L195,112 L194,111 L193,111 L192,110 Z M186,121 L187,120 L191,120 L193,122 L193,124 L192,125 L191,125 L190,126 L188,126 L186,124 Z M188,112 L190,112 L192,114 L192,116 L190,118 L188,118 L186,116 L186,114 Z"/>
<path class="ink" d="M149,110 L149,111 L148,112 L148,113 L147,114 L147,116 L146,117 L146,118 L145,119 L145,120 L144,121 L144,122 L143,123 L143,124 L142,125 L142,128 L143,128 L144,127 L145,127 L145,124 L147,122 L152,122 L153,123 L153,124 L154,125 L154,127 L155,127 L156,128 L158,128 L159,127 L160,127 L161,128 L172,128 L173,127 L173,124 L172,124 L171,125 L170,125 L169,126 L166,126 L164,124 L164,113 L165,112 L165,110 L160,110 L160,111 L161,112 L161,119 L162,120 L162,124 L160,126 L158,126 L157,125 L157,124 L156,123 L156,121 L155,120 L155,119 L154,118 L154,117 L153,116 L153,115 L152,114 L152,112 L151,111 L151,110 Z M148,117 L149,116 L151,118 L151,119 L150,120 L149,120 L148,119 Z"/>
<path class="ink" d="M130,110 L129,111 L128,111 L125,114 L125,115 L124,116 L124,122 L125,123 L125,124 L128,127 L129,127 L130,128 L136,128 L137,127 L138,127 L140,125 L140,124 L138,124 L137,125 L136,125 L135,126 L132,126 L127,121 L127,117 L128,116 L128,115 L130,113 L131,113 L132,112 L135,112 L138,115 L139,115 L139,111 L138,111 L137,110 Z"/>
<path class="ink" d="M110,110 L109,111 L107,111 L104,114 L104,116 L103,117 L103,121 L104,122 L104,124 L107,127 L109,127 L110,128 L115,128 L116,127 L117,127 L118,126 L119,126 L120,125 L120,124 L121,123 L121,122 L122,121 L122,117 L121,116 L121,114 L118,111 L117,111 L116,110 Z M110,112 L114,112 L115,113 L116,113 L117,114 L117,115 L118,116 L118,118 L119,119 L118,120 L118,122 L117,123 L117,124 L116,125 L115,125 L114,126 L111,126 L107,122 L107,120 L106,119 L106,118 L107,117 L107,115 Z"/>
<path class="ink" d="M92,110 L91,111 L90,111 L90,112 L89,113 L89,117 L91,119 L92,119 L93,120 L95,120 L98,123 L98,124 L96,126 L93,126 L90,123 L89,123 L89,127 L91,127 L92,128 L97,128 L98,127 L99,127 L100,126 L100,125 L101,124 L101,121 L98,118 L97,118 L96,117 L95,117 L94,116 L93,116 L92,115 L92,113 L93,112 L96,112 L98,114 L98,115 L100,115 L100,112 L99,111 L98,111 L97,110 Z"/>
<path class="ink" d="M92,69 L91,70 L91,71 L90,72 L90,73 L89,74 L89,75 L87,77 L84,77 L84,84 L85,85 L85,86 L88,89 L89,89 L90,90 L87,93 L87,94 L88,94 L92,90 L97,90 L101,86 L101,84 L102,83 L102,81 L103,80 L103,77 L98,77 L96,75 L96,74 L95,73 L95,72 L93,70 L93,69 Z"/>
<path class="ink" d="M246,61 L246,62 L247,63 L248,63 L250,65 L250,98 L247,101 L246,101 L246,103 L260,103 L260,101 L259,101 L256,98 L256,84 L257,83 L260,83 L262,85 L262,86 L263,87 L263,88 L265,90 L265,91 L266,92 L266,93 L268,95 L268,96 L269,97 L269,98 L272,101 L272,102 L273,102 L274,103 L302,103 L303,102 L307,102 L308,101 L309,101 L310,100 L311,100 L312,99 L313,99 L316,96 L316,95 L318,93 L318,92 L319,91 L319,89 L320,88 L320,75 L319,74 L319,72 L318,71 L318,70 L316,68 L316,67 L313,64 L312,64 L311,63 L310,63 L309,62 L307,62 L306,61 L283,61 L283,63 L285,63 L287,65 L287,98 L284,101 L281,101 L280,100 L279,100 L277,98 L277,97 L275,95 L275,94 L274,93 L274,92 L272,90 L272,89 L271,88 L271,87 L269,85 L269,84 L268,83 L270,81 L271,81 L275,77 L275,75 L276,74 L276,70 L275,69 L275,66 L272,63 L271,63 L270,62 L269,62 L268,61 Z M293,64 L294,63 L299,63 L300,64 L303,64 L304,65 L305,65 L306,66 L307,66 L309,68 L309,69 L311,71 L311,72 L312,73 L312,77 L313,78 L313,88 L312,89 L312,91 L311,92 L311,93 L305,99 L303,99 L302,100 L295,100 L293,98 Z M256,64 L257,63 L262,63 L263,64 L265,64 L268,67 L268,69 L269,70 L269,74 L268,75 L268,77 L266,79 L265,79 L264,80 L262,80 L261,81 L257,81 L256,80 Z"/>
<path class="ink" d="M155,61 L155,63 L157,63 L159,65 L159,66 L160,67 L160,70 L161,71 L161,73 L162,74 L162,76 L163,77 L163,79 L164,80 L164,82 L165,83 L165,85 L166,86 L166,88 L167,89 L167,91 L168,92 L168,94 L169,95 L169,97 L170,98 L170,100 L171,101 L171,102 L172,103 L173,103 L174,102 L174,100 L175,99 L175,97 L176,96 L176,95 L177,94 L177,92 L178,91 L178,89 L179,88 L179,86 L180,85 L180,83 L181,82 L181,80 L183,78 L184,79 L184,81 L185,82 L185,84 L186,85 L186,87 L187,88 L187,90 L188,91 L188,92 L189,93 L189,96 L190,97 L190,98 L191,99 L191,101 L192,102 L192,103 L194,103 L194,102 L195,101 L195,99 L196,98 L196,96 L197,95 L197,93 L198,92 L198,90 L199,89 L199,87 L200,86 L200,83 L201,82 L201,80 L202,79 L202,77 L203,76 L203,74 L204,73 L204,71 L205,70 L205,68 L206,67 L206,65 L208,63 L210,63 L210,61 L199,61 L199,62 L200,63 L201,63 L203,65 L203,66 L202,67 L202,69 L201,70 L201,73 L200,74 L200,76 L199,77 L199,79 L198,80 L198,82 L197,83 L197,86 L196,87 L196,88 L195,89 L193,87 L193,85 L192,84 L192,82 L191,81 L191,78 L190,77 L190,75 L189,74 L189,72 L188,71 L188,69 L187,68 L187,66 L186,65 L186,64 L187,63 L188,63 L189,62 L189,61 L176,61 L176,63 L178,63 L179,64 L179,65 L180,66 L180,68 L181,69 L181,73 L180,74 L180,76 L179,77 L179,79 L178,80 L178,82 L177,83 L177,85 L176,86 L176,88 L175,89 L174,89 L173,88 L173,86 L172,85 L172,83 L171,82 L171,80 L170,79 L170,77 L169,76 L169,74 L168,73 L168,71 L167,70 L167,67 L166,66 L166,64 L167,63 L169,63 L169,61 Z"/>
<path class="ink" d="M121,61 L121,63 L122,63 L125,66 L125,98 L122,101 L121,101 L121,103 L134,103 L135,102 L135,101 L133,101 L131,99 L131,84 L132,83 L135,83 L136,84 L136,85 L138,87 L138,88 L139,89 L139,90 L141,92 L141,93 L142,94 L142,95 L144,97 L144,98 L146,100 L146,101 L148,103 L156,103 L157,102 L157,101 L156,101 L155,100 L154,100 L151,97 L151,96 L150,95 L150,94 L148,92 L148,91 L147,90 L147,89 L145,87 L145,86 L144,85 L144,84 L143,83 L145,81 L146,81 L149,78 L149,77 L150,76 L150,74 L151,73 L151,70 L150,69 L150,67 L149,66 L149,65 L147,63 L146,63 L145,62 L144,62 L143,61 Z M131,64 L132,63 L136,63 L137,64 L139,64 L140,65 L141,65 L142,66 L142,67 L143,68 L143,69 L144,70 L144,74 L143,75 L143,76 L142,77 L142,78 L141,79 L140,79 L139,80 L137,80 L136,81 L132,81 L131,80 Z"/>
<path class="ink" d="M36,61 L36,62 L37,63 L38,63 L40,65 L40,99 L38,101 L36,101 L36,102 L37,103 L51,103 L51,101 L49,101 L47,99 L47,83 L48,82 L56,82 L58,84 L58,85 L59,86 L59,88 L61,88 L61,74 L59,74 L59,75 L58,76 L58,77 L56,79 L48,79 L47,78 L47,64 L48,63 L56,63 L57,64 L59,64 L60,65 L61,65 L63,67 L63,68 L64,69 L64,71 L65,72 L66,72 L66,62 L65,61 Z"/>
<path class="ink" d="M225,60 L224,61 L224,62 L223,63 L223,65 L222,66 L222,68 L221,69 L221,70 L220,71 L220,73 L219,74 L219,76 L218,77 L218,78 L217,79 L217,81 L216,82 L216,83 L215,84 L215,86 L214,87 L214,89 L213,90 L213,91 L212,92 L212,94 L211,95 L211,96 L210,97 L210,98 L207,101 L206,101 L206,103 L217,103 L217,101 L216,101 L214,99 L214,96 L215,95 L215,93 L216,92 L216,90 L217,89 L230,89 L231,90 L231,92 L232,93 L232,95 L233,96 L233,98 L234,99 L232,101 L231,101 L231,103 L244,103 L244,101 L243,101 L241,99 L241,98 L240,97 L240,95 L239,94 L239,93 L238,92 L238,90 L237,89 L237,88 L236,87 L236,85 L235,84 L235,82 L234,81 L234,80 L233,79 L233,77 L232,76 L232,75 L231,74 L231,72 L230,71 L230,69 L229,68 L229,67 L228,66 L228,64 L227,63 L227,62 L226,61 L226,60 Z M222,74 L223,73 L224,73 L225,74 L225,76 L226,77 L226,79 L227,80 L227,81 L228,82 L228,84 L229,85 L228,86 L219,86 L218,85 L219,84 L219,82 L220,81 L220,79 L221,78 L221,77 L222,76 Z"/>
<path class="ink" d="M90,60 L89,61 L85,61 L84,62 L82,62 L81,63 L80,63 L78,65 L77,65 L74,68 L74,69 L72,71 L72,72 L71,73 L71,75 L70,76 L70,88 L71,89 L71,91 L72,92 L72,93 L74,95 L74,96 L76,98 L77,98 L79,100 L80,100 L81,101 L82,101 L83,102 L85,102 L86,103 L99,103 L100,102 L102,102 L103,101 L105,101 L107,99 L108,99 L113,94 L113,93 L114,92 L114,91 L115,90 L115,88 L116,87 L116,76 L115,75 L115,73 L114,72 L114,71 L113,70 L113,69 L109,65 L108,65 L106,63 L105,63 L104,62 L102,62 L101,61 L99,61 L98,60 Z M88,64 L89,63 L96,63 L97,64 L98,64 L99,65 L100,65 L105,70 L105,71 L106,72 L106,73 L107,74 L107,76 L108,77 L108,87 L107,88 L107,90 L106,91 L106,92 L105,93 L105,94 L100,99 L99,99 L98,100 L95,100 L94,101 L93,101 L92,100 L89,100 L88,99 L87,99 L85,97 L84,97 L82,95 L82,94 L80,92 L80,91 L79,90 L79,88 L78,87 L78,75 L79,74 L79,72 L80,71 L80,70 L82,68 L82,67 L83,66 L84,66 L86,64 Z"/>
<path class="ink" d="M252,14 L252,16 L254,16 L255,17 L255,18 L256,19 L256,31 L255,32 L255,40 L256,41 L256,49 L255,50 L255,51 L254,52 L253,52 L252,53 L252,54 L281,54 L281,50 L282,49 L282,45 L283,44 L283,42 L281,42 L281,43 L280,44 L280,45 L278,47 L278,48 L276,50 L275,50 L274,51 L263,51 L262,50 L262,35 L263,34 L270,34 L272,36 L272,37 L273,38 L273,40 L275,40 L275,26 L273,26 L273,28 L270,31 L263,31 L262,30 L262,17 L263,16 L271,16 L272,17 L274,17 L275,18 L276,18 L277,19 L277,20 L278,21 L278,22 L279,23 L279,24 L281,24 L281,23 L280,22 L280,14 Z"/>
<path class="ink" d="M216,14 L216,15 L217,16 L218,16 L220,18 L220,50 L218,52 L217,52 L216,53 L216,54 L230,54 L230,53 L229,52 L228,52 L226,50 L226,36 L227,35 L229,35 L231,37 L231,38 L233,40 L233,41 L235,43 L235,44 L236,45 L236,46 L238,48 L238,49 L239,50 L239,51 L242,54 L250,54 L250,52 L249,52 L245,48 L245,47 L243,45 L243,44 L242,43 L242,42 L240,40 L240,39 L239,38 L239,37 L237,35 L238,34 L239,34 L241,32 L242,32 L243,31 L243,30 L244,29 L244,27 L245,26 L245,23 L244,22 L244,19 L240,15 L238,15 L237,14 Z M226,17 L227,16 L232,16 L233,17 L234,17 L237,20 L237,21 L238,22 L238,28 L237,29 L237,30 L236,31 L235,31 L234,32 L233,32 L232,33 L227,33 L226,32 Z"/>
<path class="ink" d="M176,14 L176,15 L177,15 L178,16 L179,16 L180,17 L180,44 L181,45 L181,47 L182,48 L182,49 L186,53 L187,53 L188,54 L191,54 L192,55 L197,55 L198,54 L202,54 L203,53 L204,53 L207,50 L207,49 L208,48 L208,46 L209,45 L209,19 L210,18 L210,17 L211,16 L212,16 L213,15 L213,14 L202,14 L202,15 L203,16 L204,16 L206,18 L206,35 L207,36 L207,40 L206,41 L206,45 L205,46 L205,47 L202,50 L201,50 L200,51 L193,51 L192,50 L191,50 L188,47 L188,46 L187,45 L187,17 L188,16 L189,16 L190,15 L190,14 Z"/>
<path class="ink" d="M143,14 L143,24 L145,24 L145,22 L146,21 L146,20 L147,19 L147,18 L148,17 L149,17 L150,16 L155,16 L156,17 L156,50 L154,52 L153,52 L152,53 L152,54 L166,54 L166,52 L164,52 L162,50 L162,17 L163,16 L167,16 L168,17 L169,17 L172,20 L172,21 L173,22 L173,24 L175,24 L175,22 L174,21 L174,14 Z"/>
<path class="ink" d="M72,14 L72,15 L73,16 L74,16 L77,19 L77,49 L76,50 L76,51 L75,52 L73,52 L73,54 L84,54 L84,53 L83,52 L82,52 L80,50 L80,49 L79,48 L79,24 L80,23 L81,24 L81,25 L84,28 L84,29 L87,32 L87,33 L90,36 L90,37 L92,39 L92,40 L95,43 L95,44 L98,47 L98,48 L102,52 L102,53 L103,54 L106,54 L106,18 L109,15 L110,15 L110,14 L99,14 L99,16 L101,16 L103,18 L103,40 L102,41 L99,38 L99,37 L96,34 L96,33 L94,31 L94,30 L91,27 L91,26 L88,23 L88,22 L85,19 L85,18 L82,15 L82,14 Z"/>
<path class="ink" d="M128,13 L127,14 L127,15 L126,16 L126,18 L125,19 L125,20 L124,21 L124,23 L123,24 L123,26 L122,27 L122,28 L121,29 L121,31 L120,32 L120,34 L119,35 L119,36 L118,37 L118,39 L117,40 L117,42 L116,43 L116,44 L115,45 L115,47 L114,48 L114,49 L113,50 L113,51 L112,52 L110,52 L110,54 L121,54 L121,53 L120,52 L119,52 L117,50 L117,49 L118,48 L118,46 L119,45 L119,44 L120,43 L120,42 L121,41 L132,41 L133,42 L133,43 L134,44 L134,45 L135,46 L135,48 L136,49 L136,51 L135,52 L134,52 L133,53 L133,54 L146,54 L146,52 L145,52 L143,50 L143,49 L142,48 L142,46 L141,45 L141,44 L140,43 L140,41 L139,40 L139,38 L138,37 L138,36 L137,35 L137,33 L136,32 L136,31 L135,30 L135,28 L134,27 L134,26 L133,25 L133,23 L132,22 L132,20 L131,19 L131,17 L130,16 L130,15 L129,14 L129,13 Z M125,27 L126,26 L127,26 L128,27 L128,29 L129,30 L129,32 L130,33 L130,34 L131,35 L131,37 L130,38 L123,38 L122,37 L122,35 L123,34 L123,32 L124,31 L124,30 L125,29 Z"/>
</svg>
