<svg xmlns="http://www.w3.org/2000/svg" width="1536" height="1024" viewBox="0 0 1536 1024" version="1.1">
<title>Nature Forward editable menu template</title>
<desc>Editable SVG menu layout with live text and vector line art. No raster images are embedded.</desc>
<style>
  .paper { fill: #ffffff; }
  .ink { fill: #111111; }
  text { fill: #111111; font-family: Arial, Helvetica, sans-serif; }
  .logo-main { font-family: Georgia, 'Times New Roman', serif; font-weight: 700; font-size: 51px; letter-spacing: 3px; }
  .logo-sub { font-family: Georgia, 'Times New Roman', serif; font-size: 26px; letter-spacing: 1.5px; }
  .tagline { font-size: 12px; letter-spacing: 0.5px; }
  .section { font-family: Georgia, 'Times New Roman', serif; font-weight: 700; font-size: 19px; letter-spacing: .5px; }
  .section-small { font-family: Georgia, 'Times New Roman', serif; font-weight: 700; font-size: 15px; letter-spacing: .8px; }
  .script { font-family: 'Z003', 'URW Chancery L', 'Brush Script MT', 'Segoe Script', cursive; font-size: 56px; font-weight: 400; }
  .script-small { font-family: 'Z003', 'URW Chancery L', 'Brush Script MT', 'Segoe Script', cursive; font-size: 25px; }
  .item { font-family: Georgia, 'Times New Roman', serif; font-weight: 700; font-size: 13.5px; }
  .price { font-family: Georgia, 'Times New Roman', serif; font-weight: 700; font-size: 13.5px; }
  .desc { font-size: 10px; font-weight: 500; }
  .body { font-size: 11px; }
  .small { font-size: 9px; }
  .micro { font-size: 7.2px; }
  .thin { stroke: #111111; stroke-width: 1; fill: none; }
  .thick { stroke: #111111; stroke-width: 1.6; fill: none; }
  .box { stroke: #111111; stroke-width: 1; fill: none; }
  .branch-line { stroke: #111111; stroke-width: 1.1; fill: none; }
  .branch path, .leaf-path { stroke: #111111; stroke-width: .9; fill: none; }
  .qr { fill: #111111; }
</style>

<defs>
  <g id="leaf">
    <path d="M0,0 C8,-12 22,-12 32,0 C22,12 8,12 0,0 Z" fill="none" stroke="#111111" stroke-width="0.9"/>
    <path d="M0,0 L30,0" fill="none" stroke="#111111" stroke-width="0.9"/>
    <path d="M11,0 L7,-5 M15,0 L11,6 M20,0 L16,-6 M24,0 L20,5" fill="none" stroke="#111111" stroke-width="0.9"/>
  </g>
  <g id="small-leaf">
    <path d="M1,10 C8,0 18,0 23,9 C16,15 7,16 1,10 Z" fill="none" stroke="#111111" stroke-width="0.9"/>
    <path d="M3,10 L21,8" fill="none" stroke="#111111" stroke-width="0.9"/>
  </g>
  <symbol id="nf-mark" viewBox="0 0 64 64">
    <circle cx="32" cy="32" r="29" fill="none" stroke="#111111" stroke-width="1"/>
    <path d="M32 47 C20 37 21 24 31 16 C42 25 42 38 32 47 Z" fill="#111111"/>
    <path d="M21 40 C18 30 23 23 30 22 C30 31 27 37 21 40 Z" fill="#111111"/>
    <path d="M36 38 C40 29 47 27 54 30 C48 39 42 42 36 38 Z" fill="#111111"/>
  </symbol>
</defs>

<rect class="paper" width="1536" height="1024"/>
<line x1="768" y1="0" x2="768" y2="1024" class="thin"/>
<g id="brunch-menu" transform="translate(0,0)">
<g class="branch" transform="translate(5,6) scale(1.1,1.1)">
<path d="M0,0 C40,15 75,25 120,18" class="branch-line"/>
<g transform="translate(18,-2) rotate(-35) scale(0.8)"><use href="#leaf"/></g>
<g transform="translate(32,7) rotate(20) scale(0.8)"><use href="#leaf"/></g>
<g transform="translate(47,10) rotate(-30) scale(0.8)"><use href="#leaf"/></g>
<g transform="translate(62,14) rotate(28) scale(0.8)"><use href="#leaf"/></g>
<g transform="translate(80,17) rotate(-25) scale(0.8)"><use href="#leaf"/></g>
<g transform="translate(98,19) rotate(18) scale(0.8)"><use href="#leaf"/></g>
</g>
<g class="branch" transform="translate(765,0) scale(-1.08,1.08)">
<path d="M0,0 C40,15 75,25 120,18" class="branch-line"/>
<g transform="translate(18,-2) rotate(-35) scale(0.8)"><use href="#leaf"/></g>
<g transform="translate(32,7) rotate(20) scale(0.8)"><use href="#leaf"/></g>
<g transform="translate(47,10) rotate(-30) scale(0.8)"><use href="#leaf"/></g>
<g transform="translate(62,14) rotate(28) scale(0.8)"><use href="#leaf"/></g>
<g transform="translate(80,17) rotate(-25) scale(0.8)"><use href="#leaf"/></g>
<g transform="translate(98,19) rotate(18) scale(0.8)"><use href="#leaf"/></g>
</g>
<text x="384" y="52" class="logo-main" text-anchor="middle">NATURE</text>
<text x="384" y="101" class="logo-main" text-anchor="middle">FORWARD</text>
<use href="#nf-mark" x="303" y="59" width="45" height="45"/>
<text x="384" y="128" class="logo-sub" text-anchor="middle">SOCAL BISTRO</text>
<text x="384" y="148" class="tagline" text-anchor="middle">ENJOY OUR EVERYTHING FROM SCRATCH KIND OF KITCHEN</text>
<rect x="150" y="158" width="485" height="60" rx="8" ry="8" class="box"/>
<text x="392" y="177" class="body" style="text-anchor: middle; font-weight:700; font-size:11px;"><tspan x="392" dy="0">NF COMMITMENT   •   HIGH QUALITY INGREDIENTS</tspan><tspan x="392" dy="16">UNREFINED SALT &amp; NATURAL SUGARS   •   ORGANIC &amp; LOCAL SUPPORTERS</tspan><tspan x="392" dy="16">LOCAL ORGANIC EGGS   •   EUROPEAN CHEESE</tspan></text>
<text x="142" y="247" class="section" text-anchor="middle">FIRST BITES</text>
<text x="555" y="247" class="section" text-anchor="middle">PANCAKES &amp;</text>
<text x="555" y="267" class="section" text-anchor="middle">FRENCH TOASTS</text>
<line x1="363" y1="235" x2="363" y2="370" class="thin"/>
<text x="55" y="272" class="item">Sylvia LR Scone</text>
<text x="180" y="272" class="price" text-anchor="end">7</text>
<text x="55" y="286" class="desc"><tspan x="55" dy="0">Raspberries, local seasonal cream,</tspan><tspan x="55" dy="12">lemon brûlée, raw honey</tspan></text>
<text x="55" y="316" class="item">Roasted Banana Bread</text>
<text x="225" y="316" class="price" text-anchor="end">8</text>
<text x="55" y="330" class="desc"><tspan x="55" dy="0">House cinnamon organic butter /</tspan><tspan x="55" dy="12">dark cherry jam</tspan></text>
<text x="430" y="286" class="item">Paris French Toast</text>
<text x="548" y="286" class="price" text-anchor="end">16</text>
<text x="430" y="300" class="desc"><tspan x="430" dy="0">French brioche / strawberry / banana /</tspan><tspan x="430" dy="12">vanilla whipped cream</tspan></text>
<text x="430" y="330" class="item">Nutella Crepe</text>
<text x="548" y="330" class="price" text-anchor="end">16</text>
<text x="430" y="344" class="desc"><tspan x="430" dy="0">Nutella filled / banana / chocolate</tspan><tspan x="430" dy="12">drizzle / vanilla whipped cream</tspan></text>
<rect x="32" y="373" width="292" height="316" rx="8" ry="8" class="box"/>
<text x="178.0" y="395" class="section" text-anchor="middle">LE BRUNCH / SWEET</text>
<text x="50" y="424" class="item">Bread Strawberry Jam</text>
<text x="240" y="424" class="price" text-anchor="end">12</text>
<text x="50" y="438" class="desc"><tspan x="50" dy="0">English muffin / sourdough / pain au</tspan><tspan x="50" dy="12">levain / GF bread + house jam or</tspan><tspan x="50" dy="12">cinnamon butter</tspan></text>
<text x="50" y="480" class="item">Parfaits &amp; Bowls</text>
<text x="240" y="480" class="price" text-anchor="end">9</text>
<text x="50" y="494" class="desc"><tspan x="50" dy="0">Cereza / 9 / Granada / 9</tspan></text>
<text x="50" y="512" class="item">North Shore Acai Bowl</text>
<text x="240" y="512" class="price" text-anchor="end">14</text>
<text x="50" y="526" class="desc"><tspan x="50" dy="0">Strawberry / banana / blueberries /</tspan><tspan x="50" dy="12">cacao butter / almonds / granola</tspan></text>
<text x="50" y="556" class="item">Purple Parfait</text>
<text x="240" y="556" class="price" text-anchor="end">13</text>
<text x="50" y="570" class="desc"><tspan x="50" dy="0">Acai sorbet / granola / European yogurt</tspan><tspan x="50" dy="12">or Organic cultured dark cherry /</tspan><tspan x="50" dy="12">blueberries / blackberries / walnuts /</tspan><tspan x="50" dy="12">almonds / raw local Aloha honey / banana</tspan></text>
<text x="50" y="624" class="item">Simply Fruit</text>
<text x="240" y="624" class="price" text-anchor="end">12</text>
<text x="50" y="638" class="desc"><tspan x="50" dy="0">UPGRADED Organic Strauss Yogurt  2</tspan></text>
<rect x="32" y="685" width="306" height="125" rx="8" ry="8" class="box"/>
<text x="185" y="706" class="section" text-anchor="middle">NF PASTRIES</text>
<text x="185" y="728" class="section-small" style="text-anchor: middle;"><tspan x="185" dy="0">HOUSE EUROPEAN STYLE</tspan><tspan x="185" dy="20">SCONES &amp; CROISSANTS</tspan></text>
<text x="185" y="770" class="script-small" style="text-anchor: middle;"><tspan x="185" dy="0">Made with</tspan><tspan x="185" dy="18">local ingredients</tspan></text>
<g transform="translate(230,752)"><path d="M0,34 H70 M10,34 C10,10 60,10 60,34 M35,10 v-8 M28,2 h14 M20,24 h50 M8,38 h62" class="thin"/></g>
<text x="154" y="832" class="section" text-anchor="middle">SALADS</text>
<text x="55" y="850" class="desc"><tspan x="55" dy="0">Sub protein for 2 • veg option / grilled tofu /</tspan><tspan x="55" dy="11">local marinated goat cheese / wild mushroom mix</tspan></text>
<text x="55" y="884" class="item">Chicken Caesar</text>
<text x="170" y="884" class="price" text-anchor="end">20</text>
<text x="55" y="898" class="desc"><tspan x="55" dy="0">Chopped romaine / rosemary grilled or</tspan><tspan x="55" dy="12">blackened organic chicken / beans / aged</tspan><tspan x="55" dy="12">grana padano / sourdough roasted croutons /</tspan><tspan x="55" dy="12">roasted caesar dressing / crunchy baked</tspan><tspan x="55" dy="12">quinoa / SUB Rosemary Wild Salmon  4</tspan></text>
<text x="55" y="964" class="item">Wild Salmon</text>
<text x="160" y="964" class="price" text-anchor="end">24</text>
<text x="55" y="978" class="desc"><tspan x="55" dy="0">Norwegian wild / caught salmon / organic</tspan><tspan x="55" dy="12">spring mix salad / cherry tomatoes / Pecans</tspan><tspan x="55" dy="12">cucumbers / pickled onion / roasted almonds /</tspan><tspan x="55" dy="12">balsamic vinaigrette</tspan></text>
<text x="80" y="1015" class="small">(858) 352-6808</text>
<text x="210" y="1015" class="small">8935 TOWNE CENTRE DR #110, SAN DIEGO, CA 92121</text>
<rect x="376" y="373" width="304" height="604" rx="8" ry="8" class="box"/>
<text x="528.0" y="395" class="section" text-anchor="middle">LE BRUNCH / SAVORY</text>
<text x="528" y="418" class="section-small" text-anchor="middle">SPÉCIALITÉS</text>
<text x="528" y="435" class="desc" style="text-anchor: middle;"><tspan x="528" dy="0">EVOO rosemary potatoes OR</tspan><tspan x="528" dy="13">vibrant probiotic coleslaw /</tspan><tspan x="528" dy="13">flamed jalapeño  3</tspan></text>
<text x="527" y="482" class="desc" text-anchor="middle">Sub Egg  2   |   Sub Cashew Tortilla  3</text>
<text x="527" y="498" class="desc" text-anchor="middle">Sub English Muffin  3</text>
<text x="390" y="521" class="item">Breakfast Burrito</text>
<text x="635" y="521" class="price" text-anchor="end">17</text>
<text x="390" y="535" class="desc"><tspan x="390" dy="0">Small batch tortilla / scrambled egg /</tspan><tspan x="390" dy="12">cilantro / applewood bacon / aged cheddar /</tspan><tspan x="390" dy="12">tomato / bell pepper / tomatillo sauce</tspan></text>
<text x="390" y="577" class="item">Tomatillo Chilaquiles</text>
<text x="635" y="577" class="price" text-anchor="end">18</text>
<text x="390" y="591" class="desc"><tspan x="390" dy="0">House corn chips / cilantro / onion /</tspan><tspan x="390" dy="12">pinto beans / avocado / sour cream /</tspan><tspan x="390" dy="12">tomatillo sauce / egg any style</tspan></text>
<text x="390" y="633" class="item">Huevos Rancheros Verdes</text>
<text x="635" y="633" class="price" text-anchor="end">17</text>
<text x="390" y="647" class="desc"><tspan x="390" dy="0">2 organic fried eggs over house corn</tspan><tspan x="390" dy="12">tostadas / tomatillo salsa / cilantro /</tspan><tspan x="390" dy="12">panela cheese / corn / chopped jalapeño /</tspan><tspan x="390" dy="12">avocado</tspan></text>
<text x="390" y="701" class="item">Easy’s Scrambled Eggs</text>
<text x="635" y="701" class="price" text-anchor="end">19</text>
<text x="390" y="715" class="desc"><tspan x="390" dy="0">Fresh scrambled eggs / sautéed salmon</tspan><tspan x="390" dy="12">chunks / caramelized onions</tspan></text>
<text x="390" y="745" class="item">Thin Steak and Eggs</text>
<text x="635" y="745" class="price" text-anchor="end">35</text>
<text x="390" y="759" class="desc"><tspan x="390" dy="0">Ribeye steak / 2 eggs any style /</tspan><tspan x="390" dy="12">fresh herbs</tspan></text>
<text x="390" y="789" class="item">B.Y.O Omelette</text>
<text x="635" y="789" class="price" text-anchor="end">17</text>
<text x="390" y="803" class="desc"><tspan x="390" dy="0">Two 3-egg omelets / add 3 items /</tspan><tspan x="390" dy="12">served with house slaw &amp; local</tspan><tspan x="390" dy="12">sourdough / Italian sausage /</tspan><tspan x="390" dy="12">black forest bacon</tspan></text>
<text x="390" y="857" class="item">Breakfast Classics</text>
<text x="635" y="857" class="price" text-anchor="end">17.5</text>
<text x="390" y="871" class="desc"><tspan x="390" dy="0">Scrambled eggs / aged Swiss cheese /</tspan></text>
<text x="390" y="889" class="item">Chef’s Benedict</text>
<text x="635" y="889" class="price" text-anchor="end">17.5</text>
<text x="390" y="903" class="desc"><tspan x="390" dy="0">Organic English muffin / organic poached</tspan><tspan x="390" dy="12">eggs / chef’s hollandaise</tspan><tspan x="390" dy="12">WILD: Avocado / Italian sausage / spinach / parsley garnish</tspan><tspan x="390" dy="12">VEGGIE: Avocado / mushroom / spinach / parsley garnish</tspan><tspan x="390" dy="12">KANSAS: Thin steak / tomato</tspan></text>
<text x="305" y="1000" class="micro">VEGETARIAN   •   GLUTEN FREE   •   GLUTEN FREE POSSIBLE</text>
<text x="386" y="1014" class="micro" text-anchor="middle">For parties of 6+ guests, 18% gratuity will be added. No substitutions.</text>
</g>
<g id="dinner-menu" transform="translate(768,0)">
<text x="384" y="60" class="script" text-anchor="middle">Dinner Menu</text>
<line x1="208" y1="47" x2="280" y2="47" class="thin"/><line x1="488" y1="47" x2="560" y2="47" class="thin"/>
<line x1="55" y1="95" x2="120.0" y2="95" class="thin"/>
<line x1="280.0" y1="95" x2="345" y2="95" class="thin"/>
<text x="200.0" y="103" class="section" text-anchor="middle">Chef’s Specials</text>
<use href="#small-leaf" x="98.0" y="86"/>
<use href="#small-leaf" x="288.0" y="86" transform="scale(-1,1) translate(-596.0,0)"/>
<line x1="450" y1="95" x2="520.0" y2="95" class="thin"/>
<line x1="680.0" y1="95" x2="750" y2="95" class="thin"/>
<text x="600.0" y="103" class="section" text-anchor="middle">Seafood Special</text>
<use href="#small-leaf" x="498.0" y="86"/>
<use href="#small-leaf" x="688.0" y="86" transform="scale(-1,1) translate(-1396.0,0)"/>
<text x="55" y="140" class="body">Grilled Steak with Roasted Potatoes</text>
<text x="55" y="162" class="body">&amp; Mushrooms</text>
<line x1="245" y1="158" x2="307" y2="158" stroke="#111" stroke-width="1" stroke-dasharray="1.5 2"/>
<text x="355" y="162" class="price" text-anchor="end">$33</text>
<text x="55" y="197" class="body">Grilled Salmon Sandwich</text>
<line x1="245" y1="193" x2="307" y2="193" stroke="#111" stroke-width="1" stroke-dasharray="1.5 2"/>
<text x="355" y="197" class="price" text-anchor="end">$27</text>
<text x="55" y="233" class="body">Classic Bistro Burger</text>
<line x1="245" y1="229" x2="307" y2="229" stroke="#111" stroke-width="1" stroke-dasharray="1.5 2"/>
<text x="355" y="233" class="price" text-anchor="end">$18</text>
<text x="55" y="268" class="body">Yellow Bulgur with Tomato</text>
<line x1="245" y1="264" x2="307" y2="264" stroke="#111" stroke-width="1" stroke-dasharray="1.5 2"/>
<text x="355" y="268" class="price" text-anchor="end">$16</text>
<text x="55" y="290" class="body">(+Chicken/Steak $8)</text>
<text x="450" y="140" class="body">Chef’s Seafood of the Day -</text>
<text x="450" y="162" class="body">Ask Your Server</text>
<text x="450" y="186" class="body">Additional Protein: Salmon</text>
<line x1="640" y1="182" x2="702" y2="182" stroke="#111" stroke-width="1" stroke-dasharray="1.5 2"/>
<text x="750" y="186" class="price" text-anchor="end">$11</text>
<text x="450" y="223" class="body">Mediterranean Salad</text>
<line x1="640" y1="219" x2="702" y2="219" stroke="#111" stroke-width="1" stroke-dasharray="1.5 2"/>
<text x="750" y="223" class="price" text-anchor="end">$24</text>
<text x="450" y="260" class="body">Mediterranean Salad with Salmon</text>
<line x1="640" y1="256" x2="702" y2="256" stroke="#111" stroke-width="1" stroke-dasharray="1.5 2"/>
<text x="750" y="260" class="price" text-anchor="end">$33</text>
<line x1="55" y1="342" x2="120.0" y2="342" class="thin"/>
<line x1="280.0" y1="342" x2="345" y2="342" class="thin"/>
<text x="200.0" y="350" class="section" text-anchor="middle">Pasta</text>
<use href="#small-leaf" x="98.0" y="333"/>
<use href="#small-leaf" x="288.0" y="333" transform="scale(-1,1) translate(-596.0,0)"/>
<line x1="450" y1="342" x2="520.0" y2="342" class="thin"/>
<line x1="680.0" y1="342" x2="750" y2="342" class="thin"/>
<text x="600.0" y="350" class="section" text-anchor="middle">Salads</text>
<use href="#small-leaf" x="498.0" y="333"/>
<use href="#small-leaf" x="688.0" y="333" transform="scale(-1,1) translate(-1396.0,0)"/>
<text x="55" y="388" class="body">Pesto Pasta (Chicken/Steak)</text>
<line x1="245" y1="384" x2="307" y2="384" stroke="#111" stroke-width="1" stroke-dasharray="1.5 2"/>
<text x="355" y="388" class="price" text-anchor="end">$25</text>
<text x="55" y="425" class="body">Marinara Pasta (Chicken/Steak)</text>
<line x1="245" y1="421" x2="307" y2="421" stroke="#111" stroke-width="1" stroke-dasharray="1.5 2"/>
<text x="355" y="425" class="price" text-anchor="end">$25</text>
<text x="55" y="462" class="item">Chicken Alfredo</text>
<line x1="245" y1="458" x2="307" y2="458" stroke="#111" stroke-width="1" stroke-dasharray="1.5 2"/>
<text x="355" y="462" class="price" text-anchor="end">$20</text>
<text x="450" y="388" class="body">Farmer’s Salad with Local Farm Toppings</text>
<line x1="640" y1="384" x2="702" y2="384" stroke="#111" stroke-width="1" stroke-dasharray="1.5 2"/>
<text x="750" y="388" class="price" text-anchor="end">$19</text>
<text x="450" y="425" class="body">Add Protein</text>
<line x1="640" y1="421" x2="702" y2="421" stroke="#111" stroke-width="1" stroke-dasharray="1.5 2"/>
<text x="750" y="425" class="price" text-anchor="end">$11</text>
<line x1="55" y1="532" x2="120.0" y2="532" class="thin"/>
<line x1="280.0" y1="532" x2="345" y2="532" class="thin"/>
<text x="200.0" y="540" class="section" text-anchor="middle">Creations</text>
<use href="#small-leaf" x="98.0" y="523"/>
<use href="#small-leaf" x="288.0" y="523" transform="scale(-1,1) translate(-596.0,0)"/>
<line x1="450" y1="532" x2="520.0" y2="532" class="thin"/>
<line x1="680.0" y1="532" x2="750" y2="532" class="thin"/>
<text x="600.0" y="540" class="section" text-anchor="middle">Dessert</text>
<use href="#small-leaf" x="498.0" y="523"/>
<use href="#small-leaf" x="688.0" y="523" transform="scale(-1,1) translate(-1396.0,0)"/>
<text x="55" y="575" class="body">Wild Mushroom Crepe</text>
<line x1="245" y1="571" x2="307" y2="571" stroke="#111" stroke-width="1" stroke-dasharray="1.5 2"/>
<text x="355" y="575" class="price" text-anchor="end">$19</text>
<text x="450" y="575" class="body">Yogurt, Banana &amp; Cinnamon</text>
<line x1="640" y1="571" x2="702" y2="571" stroke="#111" stroke-width="1" stroke-dasharray="1.5 2"/>
<text x="750" y="575" class="price" text-anchor="end">$15</text>
<text x="555" y="597" class="body" text-anchor="middle" style="font-style:italic;">House-made yogurt, crafted fresh daily</text>
<text x="450" y="630" class="body">Nutella Crepe</text>
<line x1="640" y1="626" x2="702" y2="626" stroke="#111" stroke-width="1" stroke-dasharray="1.5 2"/>
<text x="750" y="630" class="price" text-anchor="end">$19</text>
<text x="450" y="668" class="body">Carrot Cake (Homemade)</text>
<line x1="640" y1="664" x2="702" y2="664" stroke="#111" stroke-width="1" stroke-dasharray="1.5 2"/>
<text x="750" y="668" class="price" text-anchor="end">$9</text>
<line x1="55" y1="697" x2="120.0" y2="697" class="thin"/>
<line x1="280.0" y1="697" x2="345" y2="697" class="thin"/>
<text x="200.0" y="705" class="section" text-anchor="middle">Wine Special</text>
<use href="#small-leaf" x="98.0" y="688"/>
<use href="#small-leaf" x="288.0" y="688" transform="scale(-1,1) translate(-596.0,0)"/>
<text x="200" y="730" class="body" text-anchor="middle" font-size="18">$39 bottle  |  $9 glass</text>
<line x1="450" y1="697" x2="520.0" y2="697" class="thin"/>
<line x1="680.0" y1="697" x2="750" y2="697" class="thin"/>
<text x="600.0" y="705" class="section" text-anchor="middle">Happy Hour 2-6 PM</text>
<use href="#small-leaf" x="498.0" y="688"/>
<use href="#small-leaf" x="688.0" y="688" transform="scale(-1,1) translate(-1396.0,0)"/>
<text x="600" y="730" class="body" text-anchor="middle" font-size="17">$3 Draft Beer  |  $5 Red Wine</text>
<rect x="82" y="755" width="632" height="165" rx="12" ry="12" class="box"/>
<use href="#nf-mark" x="198" y="767" width="55" height="55"/>
<text x="224" y="838" class="section-small" style="text-anchor: middle;"><tspan x="224" dy="0">SCAN TO VIEW</tspan><tspan x="224" dy="19">OUR FULL MENU</tspan></text>
<text x="224" y="886" class="body" text-anchor="middle">Tap or scan with your</text>
<text x="224" y="904" class="body" text-anchor="middle">phone camera</text>
<rect x="444" y="765" width="150" height="150" rx="10" ry="10" class="box"/>
<rect x="460" y="780" width="36" height="36" class="qr"/><rect x="466" y="786" width="24" height="24" fill="#fff"/><rect x="472" y="792" width="12" height="12" class="qr"/>
<rect x="555" y="780" width="36" height="36" class="qr"/><rect x="561" y="786" width="24" height="24" fill="#fff"/><rect x="567" y="792" width="12" height="12" class="qr"/>
<rect x="460" y="875" width="36" height="36" class="qr"/><rect x="466" y="881" width="24" height="24" fill="#fff"/><rect x="472" y="887" width="12" height="12" class="qr"/>
<rect x="460" y="815" width="5" height="5" class="qr"/>
<rect x="460" y="820" width="5" height="5" class="qr"/>
<rect x="460" y="830" width="5" height="5" class="qr"/>
<rect x="460" y="835" width="5" height="5" class="qr"/>
<rect x="465" y="825" width="5" height="5" class="qr"/>
<rect x="465" y="835" width="5" height="5" class="qr"/>
<rect x="465" y="840" width="5" height="5" class="qr"/>
<rect x="465" y="845" width="5" height="5" class="qr"/>
<rect x="470" y="815" width="5" height="5" class="qr"/>
<rect x="470" y="840" width="5" height="5" class="qr"/>
<rect x="470" y="845" width="5" height="5" class="qr"/>
<rect x="475" y="835" width="5" height="5" class="qr"/>
<rect x="480" y="820" width="5" height="5" class="qr"/>
<rect x="480" y="830" width="5" height="5" class="qr"/>
<rect x="485" y="815" width="5" height="5" class="qr"/>
<rect x="490" y="825" width="5" height="5" class="qr"/>
<rect x="490" y="830" width="5" height="5" class="qr"/>
<rect x="490" y="840" width="5" height="5" class="qr"/>
<rect x="490" y="845" width="5" height="5" class="qr"/>
<rect x="495" y="785" width="5" height="5" class="qr"/>
<rect x="495" y="800" width="5" height="5" class="qr"/>
<rect x="495" y="810" width="5" height="5" class="qr"/>
<rect x="495" y="820" width="5" height="5" class="qr"/>
<rect x="495" y="830" width="5" height="5" class="qr"/>
<rect x="495" y="835" width="5" height="5" class="qr"/>
<rect x="495" y="845" width="5" height="5" class="qr"/>
<rect x="495" y="860" width="5" height="5" class="qr"/>
<rect x="495" y="865" width="5" height="5" class="qr"/>
<rect x="495" y="870" width="5" height="5" class="qr"/>
<rect x="500" y="780" width="5" height="5" class="qr"/>
<rect x="500" y="785" width="5" height="5" class="qr"/>
<rect x="500" y="790" width="5" height="5" class="qr"/>
<rect x="500" y="800" width="5" height="5" class="qr"/>
<rect x="500" y="830" width="5" height="5" class="qr"/>
<rect x="500" y="835" width="5" height="5" class="qr"/>
<rect x="500" y="870" width="5" height="5" class="qr"/>
<rect x="500" y="875" width="5" height="5" class="qr"/>
<rect x="505" y="780" width="5" height="5" class="qr"/>
<rect x="505" y="795" width="5" height="5" class="qr"/>
<rect x="505" y="800" width="5" height="5" class="qr"/>
<rect x="505" y="805" width="5" height="5" class="qr"/>
<rect x="505" y="810" width="5" height="5" class="qr"/>
<rect x="505" y="820" width="5" height="5" class="qr"/>
<rect x="505" y="825" width="5" height="5" class="qr"/>
<rect x="505" y="830" width="5" height="5" class="qr"/>
<rect x="505" y="845" width="5" height="5" class="qr"/>
<rect x="505" y="850" width="5" height="5" class="qr"/>
<rect x="505" y="855" width="5" height="5" class="qr"/>
<rect x="505" y="860" width="5" height="5" class="qr"/>
<rect x="505" y="870" width="5" height="5" class="qr"/>
<rect x="505" y="875" width="5" height="5" class="qr"/>
<rect x="510" y="780" width="5" height="5" class="qr"/>
<rect x="510" y="790" width="5" height="5" class="qr"/>
<rect x="510" y="820" width="5" height="5" class="qr"/>
<rect x="510" y="830" width="5" height="5" class="qr"/>
<rect x="510" y="840" width="5" height="5" class="qr"/>
<rect x="510" y="860" width="5" height="5" class="qr"/>
<rect x="510" y="865" width="5" height="5" class="qr"/>
<rect x="510" y="870" width="5" height="5" class="qr"/>
<rect x="510" y="875" width="5" height="5" class="qr"/>
<rect x="510" y="880" width="5" height="5" class="qr"/>
<rect x="515" y="785" width="5" height="5" class="qr"/>
<rect x="515" y="790" width="5" height="5" class="qr"/>
<rect x="515" y="840" width="5" height="5" class="qr"/>
<rect x="515" y="845" width="5" height="5" class="qr"/>
<rect x="515" y="865" width="5" height="5" class="qr"/>
<rect x="520" y="800" width="5" height="5" class="qr"/>
<rect x="520" y="815" width="5" height="5" class="qr"/>
<rect x="520" y="835" width="5" height="5" class="qr"/>
<rect x="520" y="845" width="5" height="5" class="qr"/>
<rect x="520" y="860" width="5" height="5" class="qr"/>
<rect x="520" y="865" width="5" height="5" class="qr"/>
<rect x="525" y="785" width="5" height="5" class="qr"/>
<rect x="525" y="790" width="5" height="5" class="qr"/>
<rect x="525" y="800" width="5" height="5" class="qr"/>
<rect x="525" y="810" width="5" height="5" class="qr"/>
<rect x="525" y="840" width="5" height="5" class="qr"/>
<rect x="525" y="850" width="5" height="5" class="qr"/>
<rect x="525" y="875" width="5" height="5" class="qr"/>
<rect x="525" y="880" width="5" height="5" class="qr"/>
<rect x="530" y="835" width="5" height="5" class="qr"/>
<rect x="530" y="840" width="5" height="5" class="qr"/>
<rect x="530" y="855" width="5" height="5" class="qr"/>
<rect x="530" y="870" width="5" height="5" class="qr"/>
<rect x="535" y="820" width="5" height="5" class="qr"/>
<rect x="535" y="825" width="5" height="5" class="qr"/>
<rect x="535" y="840" width="5" height="5" class="qr"/>
<rect x="535" y="845" width="5" height="5" class="qr"/>
<rect x="535" y="880" width="5" height="5" class="qr"/>
<rect x="540" y="820" width="5" height="5" class="qr"/>
<rect x="540" y="825" width="5" height="5" class="qr"/>
<rect x="540" y="845" width="5" height="5" class="qr"/>
<rect x="540" y="855" width="5" height="5" class="qr"/>
<rect x="540" y="860" width="5" height="5" class="qr"/>
<rect x="540" y="870" width="5" height="5" class="qr"/>
<rect x="545" y="820" width="5" height="5" class="qr"/>
<rect x="545" y="825" width="5" height="5" class="qr"/>
<rect x="545" y="850" width="5" height="5" class="qr"/>
<rect x="545" y="855" width="5" height="5" class="qr"/>
<rect x="545" y="865" width="5" height="5" class="qr"/>
<rect x="550" y="825" width="5" height="5" class="qr"/>
<rect x="550" y="845" width="5" height="5" class="qr"/>
<rect x="550" y="870" width="5" height="5" class="qr"/>
<rect x="550" y="880" width="5" height="5" class="qr"/>
<rect x="555" y="820" width="5" height="5" class="qr"/>
<rect x="555" y="825" width="5" height="5" class="qr"/>
<rect x="555" y="830" width="5" height="5" class="qr"/>
<rect x="555" y="840" width="5" height="5" class="qr"/>
<rect x="555" y="850" width="5" height="5" class="qr"/>
<rect x="555" y="860" width="5" height="5" class="qr"/>
<rect x="555" y="870" width="5" height="5" class="qr"/>
<rect x="560" y="815" width="5" height="5" class="qr"/>
<rect x="560" y="825" width="5" height="5" class="qr"/>
<rect x="560" y="830" width="5" height="5" class="qr"/>
<rect x="560" y="835" width="5" height="5" class="qr"/>
<rect x="560" y="840" width="5" height="5" class="qr"/>
<rect x="560" y="870" width="5" height="5" class="qr"/>
<use href="#nf-mark" x="507" y="826" width="36" height="36"/>
<g class="branch" transform="translate(118,940) scale(0.9,0.9)">
<path d="M0,0 C40,15 75,25 120,18" class="branch-line"/>
<g transform="translate(18,-2) rotate(-35) scale(0.8)"><use href="#leaf"/></g>
<g transform="translate(32,7) rotate(20) scale(0.8)"><use href="#leaf"/></g>
<g transform="translate(47,10) rotate(-30) scale(0.8)"><use href="#leaf"/></g>
<g transform="translate(62,14) rotate(28) scale(0.8)"><use href="#leaf"/></g>
<g transform="translate(80,17) rotate(-25) scale(0.8)"><use href="#leaf"/></g>
<g transform="translate(98,19) rotate(18) scale(0.8)"><use href="#leaf"/></g>
</g>
<g class="branch" transform="translate(702,940) scale(-0.9,0.9)">
<path d="M0,0 C40,15 75,25 120,18" class="branch-line"/>
<g transform="translate(18,-2) rotate(-35) scale(0.8)"><use href="#leaf"/></g>
<g transform="translate(32,7) rotate(20) scale(0.8)"><use href="#leaf"/></g>
<g transform="translate(47,10) rotate(-30) scale(0.8)"><use href="#leaf"/></g>
<g transform="translate(62,14) rotate(28) scale(0.8)"><use href="#leaf"/></g>
<g transform="translate(80,17) rotate(-25) scale(0.8)"><use href="#leaf"/></g>
<g transform="translate(98,19) rotate(18) scale(0.8)"><use href="#leaf"/></g>
</g>
<text x="384" y="955" class="script-small" text-anchor="middle" font-size="30">Thank you for supporting</text>
<text x="384" y="985" class="script-small" text-anchor="middle" font-size="28">local &amp; sustainable.</text>
<text x="384" y="1010" class="script-small" text-anchor="middle" font-size="28">We appreciate you!</text>
</g>
</svg>